<svg xmlns="http://www.w3.org/2000/svg" viewBox="0 0 120 103.89"><defs><style>.cls-1{fill:#006;}</style></defs><title>Recurso 2</title><g id="Capa_2" data-name="Capa 2"><g id="Predeterminada"><polygon class="cls-1" points="49.95 74.67 6.77 99.6 5.62 103.89 57.52 93.56 57.52 79.04 49.95 74.67"/><path class="cls-1" d="M52.11,66A7.88,7.88,0,1,1,60,73.9,7.87,7.87,0,0,1,52.11,66Z"/><polygon class="cls-1" points="113.18 99.58 70.03 74.67 62.48 79.03 62.48 93.56 114.33 103.88 113.18 99.58"/><polygon class="cls-1" points="85.1 54.38 72.49 61.66 72.49 70.35 115.71 95.31 120 94.16 85.1 54.38"/><polygon class="cls-1" points="0 94.15 34.89 54.38 47.48 61.65 47.48 70.37 4.29 95.3 0 94.15"/><polygon class="cls-1" points="65.63 0 62.48 3.15 62.48 53.02 70 57.36 82.62 50.08 65.63 0"/><polygon class="cls-1" points="54.36 0 37.38 50.08 49.98 57.36 57.52 53.01 57.52 3.15 54.36 0"/></g></g></svg>